<?xml version="1.0" standalone="no"?>
<!DOCTYPE svg PUBLIC "-//W3C//DTD SVG 1.1//EN" "http://www.w3.org/Graphics/SVG/1.1/DTD/svg11.dtd" >
<svg>
<metadata>
Created by FontForge 20090914 at Fri Feb 24 04:32:22 2012
 By root
A Planet Font. Copyright 1998 The Planet                                                                       http://www.planet.dk
</metadata>
<defs>
<font id="PlanetEstyle" horiz-adv-x="288" >
  <font-face 
    font-family="Planet Estyle"
    font-weight="400"
    font-stretch="normal"
    units-per-em="1000"
    panose-1="0 0 4 0 0 0 0 0 0 0"
    ascent="800"
    descent="-200"
    x-height="529"
    cap-height="739"
    bbox="-162 -318 1163 1019"
    underline-thickness="20"
    underline-position="-123"
    unicode-range="U+0020-U+F002"
  />
<missing-glyph horiz-adv-x="500" 
d="M63 0v800h375v-800h-375zM125 63h250v675h-250v-675z" />
    <glyph glyph-name=".notdef" horiz-adv-x="500" 
d="M63 0v800h375v-800h-375zM125 63h250v675h-250v-675z" />
    <glyph glyph-name=".null" horiz-adv-x="0" 
 />
    <glyph glyph-name="nonmarkingreturn" 
 />
    <glyph glyph-name="space" unicode=" " 
 />
    <glyph glyph-name="exclam" unicode="!" horiz-adv-x="189" 
d="M107 207h-104v532h104v-532zM107 0h-104v104h104v-104z" />
    <glyph glyph-name="quotedbl" unicode="&#x22;" horiz-adv-x="396" 
d="M312 479h-104v260h104v-260zM104 479h-104v260h104v-260z" />
    <glyph glyph-name="numbersign" unicode="#" horiz-adv-x="605" 
d="M530 213h-109v-109h-104v109h-104v-109h-104v109h-110v104h110v104h-110v105h110v109h104v-109h104v109h104v-109h109v-105h-109v-104h109v-104zM317 317v104h-104v-104h104z" />
    <glyph glyph-name="dollar" unicode="$" horiz-adv-x="517" 
d="M449 210q0 -183 -174 -207v-58h-104v58q-173 26 -173 208h104q0 -89 69 -103v225q-79 26 -117 61q-56 50 -56 134q0 182 173 208v53h104v-54q174 -24 174 -207h-104q0 87 -70 103v-221q79 -27 118 -63q56 -52 56 -137zM171 444v187q-69 -16 -69 -103q0 -57 69 -84z
M345 210q0 60 -70 89v-191q70 14 70 102z" />
    <glyph glyph-name="percent" unicode="%" horiz-adv-x="823" 
d="M771 171q0 -171 -161 -171t-161 171t161 171v0q161 0 161 -171zM585 699l-323 -784l-97 39l324 785zM312 516q0 -171 -161 -171t-161 171t161 171v0q161 0 161 -171zM670 171q0 41 -12.5 55.5t-47.5 14.5t-47.5 -14.5t-12.5 -55.5t12.5 -56t47.5 -15v0q35 0 47.5 15
t12.5 56zM211 516q0 40 -12.5 55t-47.5 15t-48 -15t-13 -55q0 -41 13 -56t48 -15v0q35 0 47.5 15t12.5 56z" />
    <glyph glyph-name="ampersand" unicode="&#x26;" horiz-adv-x="705" 
d="M649 527q0 -122 -71 -174q-49 -37 -126 -37v0h-93v-211h104v-106h-104v-51h-104v51h-65q-77 0 -127 37q-71 53 -71 174q0 122 71 175q50 36 127 36h64v106q0 121 71 174q50 37 127 37q76 0 126 -37q71 -53 71 -174zM544 527q0 55 -17 79q-21 27 -75 27q-55 0 -76 -27
q-17 -23 -17 -79v0v-106h93q55 0 75 27q17 23 17 79zM254 105v211h-64q-55 0 -75 -27q-17 -23 -17 -79t17 -78q20 -27 75 -27h64z" />
    <glyph glyph-name="quotesingle" unicode="'" horiz-adv-x="189" 
d="M105 479h-104v260h104v-260z" />
    <glyph glyph-name="parenleft" unicode="(" horiz-adv-x="313" 
d="M254 -209q-254 0 -254 237v474q0 237 254 237v-104q-75 0 -109 -25q-41 -31 -41 -108v-474q0 -77 41 -108q34 -25 109 -25v0v-104z" />
    <glyph glyph-name="parenright" unicode=")" horiz-adv-x="334" 
d="M253 28q0 -237 -254 -237v0v104q75 0 109 25q41 31 41 108v474q0 77 -41 108q-34 25 -109 25v104q254 0 254 -237v-474z" />
    <glyph glyph-name="asterisk" unicode="*" horiz-adv-x="595" 
d="M530 213h-175l88 -152l-91 -52l-87 152l-88 -152l-90 52l87 152h-175v104h175l-87 152l90 52l88 -152l87 152l91 -52l-88 -152h175v-104z" />
    <glyph glyph-name="plus" unicode="+" horiz-adv-x="452" 
d="M381 213h-138v-138h-104v138h-138v104h138v138h104v-138h138v-104z" />
    <glyph glyph-name="comma" unicode="," horiz-adv-x="186" 
d="M105 0l-104 -105v209h104v-104z" />
    <glyph glyph-name="hyphen" unicode="-" horiz-adv-x="473" 
d="M380 213h-381v104h381v-104z" />
    <glyph glyph-name="hyphen" unicode="&#x2010;" horiz-adv-x="473" 
d="M380 213h-381v104h381v-104z" />
    <glyph glyph-name="period" unicode="." horiz-adv-x="190" 
d="M109 0h-105v104h105v-104z" />
    <glyph glyph-name="slash" unicode="/" horiz-adv-x="425" 
d="M401 698l-393 -948l-96 40l393 948z" />
    <glyph glyph-name="zero" unicode="0" horiz-adv-x="574" 
d="M497 265q0 -265 -247 -265q-248 0 -248 265v208q0 266 248 266v0q247 0 247 -266v-208zM393 265v208q0 81 -26 117q-33 45 -117 45q-83 0 -116 -45q-28 -36 -28 -117v-208q0 -80 28 -117q33 -44 116 -44q84 0 117 44q26 36 26 117z" />
    <glyph glyph-name="one" unicode="1" horiz-adv-x="574" 
d="M372 0h-104v546q0 42 -27 62q-37 27 -134 27v104q265 0 265 -193v-546z" />
    <glyph glyph-name="two" unicode="2" horiz-adv-x="574" 
d="M451 0h-451v158q0 94 69 156q39 35 137 79q78 35 104 57q37 31 37 78q0 63 -32 87q-27 20 -89 20q-63 0 -90 -20q-32 -24 -32 -87h-104q0 82 39 135q57 76 187 76t186 -76q39 -53 39 -135q0 -91 -67 -152q-40 -36 -135 -78q-81 -36 -107 -59q-38 -31 -38 -81v0v-54h347
v-104z" />
    <glyph glyph-name="three" unicode="3" horiz-adv-x="574" 
d="M451 210q0 -82 -39 -134q-56 -76 -186 -76t-187 76q-39 53 -39 135h104q0 -63 32 -87q27 -20 90 -20t89 20q32 23 32 86t-32 87q-26 20 -89 20v104q62 0 89 20q32 24 32 87t-32 87q-27 20 -89 20q-63 0 -90 -20q-32 -24 -32 -87h-104q0 82 39 135q57 76 187 76t186 -76
q39 -53 39 -135q0 -103 -61 -159v0q61 -55 61 -159z" />
    <glyph glyph-name="four" unicode="4" horiz-adv-x="574" 
d="M445 0h-104v317h-94q-247 0 -247 266v156h104v-156q0 -81 27 -117q33 -45 116 -45h94v318h104v-739z" />
    <glyph glyph-name="five" unicode="5" horiz-adv-x="574" 
d="M451 210q0 -82 -39 -134q-56 -76 -186 -76t-187 76q-39 53 -39 135h104q0 -63 32 -87q27 -20 90 -20t89 20q32 23 32 86v112q0 63 -32 87q-26 20 -89 20t-90 -20q-32 -23 -32 -86h-104v416h451v-104h-347v-125q51 23 122 23q130 0 186 -76q39 -53 39 -135v-112z" />
    <glyph glyph-name="six" unicode="6" horiz-adv-x="574" 
d="M451 211q0 -82 -39 -135q-56 -76 -186 -76t-187 76q-39 52 -39 134v318q0 82 39 135q57 76 187 76t186 -76q39 -53 39 -135h-104q0 63 -32 87q-27 20 -89 20q-63 0 -90 -20q-32 -24 -32 -87v-78q51 23 122 23v0q130 0 186 -76q39 -52 39 -134v-52zM347 211v52
q0 63 -32 86q-26 20 -89 20t-90 -20q-32 -24 -32 -87v0v0v0v0v-52q0 -63 32 -86q27 -20 90 -20v0q63 0 89 20q32 24 32 87z" />
    <glyph glyph-name="seven" unicode="7" horiz-adv-x="574" 
d="M451 580q0 -94 -68 -155q-41 -37 -138 -80q-78 -35 -104 -57q-37 -31 -37 -78v-210h-104v210q0 92 67 152q39 34 136 78q80 36 107 59q37 32 37 81v55h-347v104h451v-159z" />
    <glyph glyph-name="eight" unicode="8" horiz-adv-x="574" 
d="M451 210q0 -82 -39 -134q-56 -76 -186 -76t-187 76q-39 53 -39 135q0 103 61 158q-61 56 -61 159q0 82 39 135q57 76 187 76t186 -76q39 -53 39 -135q0 -103 -61 -159v0q61 -55 61 -159zM347 528q0 63 -32 87q-27 20 -89 20q-63 0 -90 -20q-32 -24 -32 -87v0
q0 -63 32 -87q27 -20 90 -20q62 0 89 20q32 24 32 87zM347 210q0 63 -32 87q-26 20 -89 20t-90 -20q-32 -23 -32 -86t32 -87q27 -20 90 -20v0q63 0 89 20q32 23 32 86z" />
    <glyph glyph-name="nine" unicode="9" horiz-adv-x="574" 
d="M451 528v0v0v-317q0 -82 -39 -135q-56 -76 -186 -76t-187 76q-39 52 -39 134v55h104v-55q0 -63 32 -86q27 -20 90 -20t89 20q32 24 32 87v130q-50 -24 -121 -24q-130 0 -187 76q-39 53 -39 135t39 135q57 76 187 76t186 -76q39 -53 39 -135zM347 528v0q0 63 -32 87
q-27 20 -89 20q-63 0 -90 -20q-32 -24 -32 -87t32 -87q27 -20 90 -20v0q62 0 89 20q32 24 32 87z" />
    <glyph glyph-name="colon" unicode=":" horiz-adv-x="188" 
d="M107 265h-105v104h105v-104zM107 0h-105v104h105v-104z" />
    <glyph glyph-name="semicolon" unicode=";" horiz-adv-x="186" 
d="M107 265h-104v104h104v-104zM107 0l-104 -105v209h104v-104z" />
    <glyph glyph-name="less" unicode="&#x3c;" horiz-adv-x="381" 
d="M312 97l-74 -73l-241 241l241 241l74 -73l-168 -168z" />
    <glyph glyph-name="equal" unicode="=" horiz-adv-x="473" 
d="M416 369h-417v104h417v-104zM416 104h-417v104h417v-104z" />
    <glyph glyph-name="greater" unicode="&#x3e;" horiz-adv-x="373" 
d="M311 265l-241 -241l-74 73l168 168l-168 168l74 73z" />
    <glyph glyph-name="question" unicode="?" horiz-adv-x="503" 
d="M447 528q0 -88 -38 -141q-21 -30 -72 -61q-36 -22 -46 -38q-17 -25 -17 -80h-104q0 91 38 144q22 31 74 63q35 22 45 37q16 24 16 76q0 63 -32 87q-26 20 -89 20t-89 -20q-32 -24 -32 -87h-105q0 82 40 135q56 76 186 76t186 -76q39 -53 39 -135zM274 0h-104v104h104
v-104z" />
    <glyph glyph-name="at" unicode="@" horiz-adv-x="1017" 
d="M943 265q0 -133 -66 -218q-62 -79 -145 -79q-74 0 -116 63q-52 -31 -144 -31q-215 0 -215 159q0 62 37 102q54 57 178 57q72 0 96 20q14 11 14 34q0 24 -14 35q-24 20 -96 20q-73 0 -97 -20q-14 -11 -14 -35h-104q0 159 215 159q123 0 177 -57q37 -40 37 -102v-213
q0 -87 46 -87q38 0 70 49q37 57 37 144q0 152 -108 260t-260 108t-260 -108t-108 -260t108 -260t260 -108h52v-104h-52q-195 0 -333.5 138.5t-138.5 333.5t138.5 333.5t333.5 138.5v0q195 0 333.5 -138.5t138.5 -333.5zM582 159v0v2v68q-46 -16 -110 -16q-73 0 -97 -19
q-14 -11 -14 -35t14 -35q24 -20 97 -20q72 0 96 20q14 11 14 35z" />
    <glyph glyph-name="A" unicode="A" horiz-adv-x="574" 
d="M494 0h-104v265h-287v-265h-104v473q0 266 247 266v0q248 0 248 -266v-473zM390 369v104q0 81 -27 117q-34 45 -117 45t-116 -45q-27 -36 -27 -117v-104h287z" />
    <glyph glyph-name="B" unicode="B" horiz-adv-x="520" 
d="M440 210q0 -121 -71 -174q-49 -36 -126 -36h-244v739h244q77 0 126 -36q71 -53 71 -175v0q0 -106 -53 -159q53 -53 53 -159zM336 528v0q0 56 -17 79q-21 28 -76 28h-140v-214h140q55 0 76 28q17 23 17 79zM336 210q0 56 -17 79q-21 28 -76 28h-140v-213h140q55 0 76 27
q17 23 17 79z" />
    <glyph glyph-name="C" unicode="C" horiz-adv-x="556" 
d="M500 265q0 -265 -247 -265q-248 0 -248 265v208q0 266 248 266q247 0 247 -266h-104q0 81 -27 117q-33 45 -116 45t-117 -45q-27 -36 -27 -117v-208q0 -80 27 -117q34 -44 117 -44v0q83 0 116 44q27 36 27 117h104z" />
    <glyph glyph-name="D" unicode="D" horiz-adv-x="524" 
d="M448 265q0 -265 -248 -265h-198v739h198q248 0 248 -266v-208zM343 265v208q0 81 -27 117q-33 45 -116 45h-94v-531h94q83 0 116 44q27 36 27 117z" />
    <glyph glyph-name="E" unicode="E" horiz-adv-x="453" 
d="M404 0h-401v739h401v-104h-296v-214h243v-104h-243v-213h296v-104z" />
    <glyph glyph-name="F" unicode="F" horiz-adv-x="485" 
d="M405 635h-296v-214h244v-104h-244v-317h-104v739h400v-104z" />
    <glyph glyph-name="G" unicode="G" horiz-adv-x="566" 
d="M499 265q0 -265 -248 -265q-247 0 -247 265v208q0 266 247 266q248 0 248 -266h-104q0 81 -27 117q-34 45 -117 45t-116 -45q-27 -36 -27 -117v-208q0 -81 27 -117q33 -44 116 -44t117 44q27 37 27 117h-144v104h248v-104z" />
    <glyph glyph-name="H" unicode="H" horiz-adv-x="579" 
d="M494 0h-104v265h-282v-265h-105v739h105v-370h282v370h104v-739z" />
    <glyph glyph-name="I" unicode="I" horiz-adv-x="190" 
d="M105 0h-104v739h104v-739z" />
    <glyph glyph-name="J" unicode="J" horiz-adv-x="330" 
d="M248 265q0 -265 -247 -265v0v104q83 0 116 44q27 36 27 117v474h104v-474z" />
    <glyph glyph-name="K" unicode="K" horiz-adv-x="565" 
d="M489 0h-105v103q0 81 -27 117q-33 45 -116 45h-137v-266h-104v740h104v-370h131q83 0 116 44q27 36 27 117v209h104v-209q0 -143 -76 -211v0q83 -66 83 -216v-103z" />
    <glyph glyph-name="L" unicode="L" horiz-adv-x="509" 
d="M445 0h-442v739h104v-635h338v-104z" />
    <glyph glyph-name="M" unicode="M" horiz-adv-x="968" 
d="M888 0h-104v473q0 81 -27 117q-33 44 -116 44t-117 -44q-27 -37 -27 -117v-473h-104v473q0 81 -27 117q-33 44 -116 44t-117 -44q-27 -37 -27 -117v-473h-104v473q0 266 248 266q132 0 195 -81q64 81 196 81v0q247 0 247 -266v-473z" />
    <glyph glyph-name="N" unicode="N" horiz-adv-x="579" 
d="M499 0h-104v473q0 81 -27 117q-33 45 -116 45t-116 -45q-27 -36 -27 -117v-473h-105v473q0 266 248 266q247 0 247 -266v-473z" />
    <glyph glyph-name="O" unicode="O" horiz-adv-x="573" 
d="M496 265q0 -265 -247 -265q-248 0 -248 265v208q0 266 248 266q247 0 247 -266v0v-208zM392 265v208q0 81 -27 117q-33 45 -116 45t-117 -45q-27 -36 -27 -117v-208q0 -80 27 -117q34 -44 117 -44t116 44q27 36 27 117z" />
    <glyph glyph-name="P" unicode="P" horiz-adv-x="518" 
d="M466 502q0 -237 -253 -237h-103v-265h-104v739h207q253 0 253 -237zM362 502q0 77 -41 108q-34 25 -108 25h-103v-266h103q76 0 109 25q40 30 40 108z" />
    <glyph glyph-name="Q" unicode="Q" horiz-adv-x="581" 
d="M507 47l-74 -74l-54 54q-51 -27 -129 -27q-248 0 -248 265v208q0 266 248 266q247 0 247 -266v-208q0 -106 -40 -168zM393 265v208q0 81 -27 117q-33 45 -116 45t-117 -45q-27 -36 -27 -117v-208q0 -80 27 -117q34 -44 117 -44v0q29 0 48 4l-43 43l74 74l51 -51
q13 33 13 91z" />
    <glyph glyph-name="R" unicode="R" horiz-adv-x="543" 
d="M465 0h-105v132q0 78 -41 108q-33 25 -108 25h-103v-265h-104v739h207q254 0 254 -237q0 -124 -75 -185v0q75 -60 75 -185v-132zM360 502q0 77 -41 108q-33 25 -108 25h-103v-266h103q76 0 109 25q40 30 40 108z" />
    <glyph glyph-name="S" unicode="S" horiz-adv-x="519" 
d="M450 210q0 -82 -39 -134q-56 -76 -186 -76t-186 76q-40 53 -40 135h104q0 -63 32 -87q27 -20 90 -20t89 20q32 23 32 86q0 45 -32 69q-26 19 -106 43q-96 29 -137 59q-72 53 -72 147q0 82 40 135q56 76 186 76t186 -76q39 -53 39 -135h-104q0 63 -32 87q-27 20 -89 20
q-63 0 -90 -20q-32 -24 -32 -87q0 -42 32 -65q25 -18 103 -41v0q98 -29 140 -61q72 -53 72 -151z" />
    <glyph glyph-name="T" unicode="T" horiz-adv-x="527" 
d="M476 635h-184v-635h-104v635h-184v104h472v-104z" />
    <glyph glyph-name="U" unicode="U" horiz-adv-x="578" 
d="M496 265q0 -265 -248 -265q-247 0 -247 265v474h104v-474q0 -81 27 -117q33 -44 116 -44t117 44q27 37 27 117v474h104v-474z" />
    <glyph glyph-name="V" unicode="V" horiz-adv-x="682" 
d="M655 738l-293 -741h-97l-292 741h112l229 -580l229 580h112z" />
    <glyph glyph-name="W" unicode="W" horiz-adv-x="968" 
d="M886 265q0 -265 -247 -265q-133 0 -196 80q-62 -80 -195 -80q-248 0 -248 265v474h105v-474q0 -81 27 -117q33 -44 116 -44t116 44q27 36 27 117v474h104v-474q0 -80 27 -117q34 -44 117 -44t116 44q27 36 27 117v474h104v-474z" />
    <glyph glyph-name="X" unicode="X" horiz-adv-x="649" 
d="M595 0h-125l-187 282l-187 -282h-125l250 377l-240 362h125l177 -268l178 268h125l-240 -362z" />
    <glyph glyph-name="Y" unicode="Y" horiz-adv-x="572" 
d="M496 531q0 -234 -195 -262v-269h-105v269q-195 28 -195 262v208h104v-208q0 -81 27 -117q33 -45 116 -45t117 45q27 36 27 117v208h104v-208z" />
    <glyph glyph-name="Z" unicode="Z" horiz-adv-x="612" 
d="M554 0h-551v104q0 149 86 228q51 46 174 89q101 36 134 66q53 48 53 147h-447v105h551v-105q0 -145 -85 -223q-50 -45 -172 -88q-102 -36 -136 -68q-53 -49 -53 -151h446v-104z" />
    <glyph glyph-name="bracketleft" unicode="[" horiz-adv-x="330" 
d="M274 635h-164v-740h136v-104h-240v948h268v-104z" />
    <glyph glyph-name="backslash" unicode="\" horiz-adv-x="452" 
d="M484 -210l-96 -40l-393 948l96 40z" />
    <glyph glyph-name="bracketright" unicode="]" horiz-adv-x="325" 
d="M240 -209h-240v104h135v740h-135v104h240v-948z" />
    <glyph glyph-name="asciicircum" unicode="^" horiz-adv-x="492" 
d="M424 631l-47 -93l-166 84l-166 -84l-47 93l213 108z" />
    <glyph glyph-name="underscore" unicode="_" horiz-adv-x="576" 
d="M576 -157h-577v104h577v-104z" />
    <glyph glyph-name="grave" unicode="`" horiz-adv-x="426" 
d="M356 650l-20 -102l-52 10l-296 59l21 103l51 -11z" />
    <glyph glyph-name="a" unicode="a" horiz-adv-x="503" 
d="M426 159q0 -159 -215 -159q-123 0 -177 57q-37 40 -37 102t37 102q54 57 177 57v0q73 0 97 20q14 11 14 34q0 24 -14 35q-24 20 -97 20q-72 0 -96 -20q-14 -11 -14 -35h-104q0 62 37 102q54 57 177 57q215 0 215 -159v0v-213zM322 159v70q-46 -16 -111 -16v0
q-72 0 -96 -19q-14 -11 -14 -35t14 -35q24 -20 96 -20v0q73 0 97 20q14 11 14 35z" />
    <glyph glyph-name="b" unicode="b" horiz-adv-x="555" 
d="M498 265q0 -265 -248 -265q-247 0 -247 265v474h104v-208h143q248 0 248 -266zM394 265q0 81 -27 117q-34 45 -117 45h-143v-162q0 -80 27 -116q33 -45 116 -45v0q83 0 117 45q27 36 27 116z" />
    <glyph glyph-name="c" unicode="c" horiz-adv-x="530" 
d="M478 162q-43 -162 -235 -162q-247 0 -247 266q0 265 247 265q192 0 235 -162h-110q-30 58 -125 58q-83 0 -116 -44q-27 -36 -27 -117t27 -117q33 -45 116 -45q94 0 125 58v0h110z" />
    <glyph glyph-name="d" unicode="d" horiz-adv-x="570" 
d="M488 265q0 -266 -247 -266q-248 0 -248 266q0 265 248 265h143v209h104v-474zM384 265v161h-143q-83 0 -116 -44q-27 -36 -27 -117t27 -117q33 -45 116 -45v0q83 0 116 45q27 36 27 117z" />
    <glyph glyph-name="e" unicode="e" horiz-adv-x="570" 
d="M489 0h-247q-248 0 -248 265q0 266 248 266q247 0 247 -266v-52h-388q16 -109 141 -109h247v-104zM382 317q-16 110 -140 110v0q-125 0 -141 -110h281z" />
    <glyph glyph-name="f" unicode="f" horiz-adv-x="328" 
d="M266 426h-161v-426h-105v546q0 193 266 193v-104q-97 0 -134 -27q-27 -20 -27 -62v-16h161v-104z" />
    <glyph glyph-name="g" unicode="g" horiz-adv-x="570" 
d="M490 -15q0 -194 -247 -194h-196v104h196q93 0 125 33q18 18 18 57v15h-143q-248 0 -248 265q0 266 248 266v0q247 0 247 -266v-280zM386 104v161q0 81 -27 117q-33 45 -116 45t-117 -45q-27 -36 -27 -117q0 -80 27 -117q34 -44 117 -44v0h143z" />
    <glyph glyph-name="h" unicode="h" horiz-adv-x="566" 
d="M495 0h-104v265q0 81 -27 117q-33 45 -116 45t-117 -45q-27 -36 -27 -117v-265h-104v739h104v-243q59 35 144 35v0q247 0 247 -266v-265z" />
    <glyph glyph-name="i" unicode="i" horiz-adv-x="185" 
d="M104 635h-104v104h104v-104zM0 531h104v-531h-104v531z" />
    <glyph glyph-name="j" unicode="j" horiz-adv-x="344" 
d="M266 635h-104v104h104v-104zM266 -16q0 -193 -265 -193v104q96 0 133 27q28 20 28 62v547h104v-547z" />
    <glyph glyph-name="k" unicode="k" horiz-adv-x="491" 
d="M435 0h-104v52q0 81 -27 117q-33 44 -116 44h-85v-213h-104v739h104v-422h79q83 0 116 45q27 36 27 117v52h104v-52q0 -145 -76 -211v0q82 -67 82 -216v-52z" />
    <glyph glyph-name="l" unicode="l" horiz-adv-x="311" 
d="M269 0q-266 0 -266 192v547h104v-547q0 -41 28 -61q37 -27 134 -27v-104z" />
    <glyph glyph-name="m" unicode="m" horiz-adv-x="969" 
d="M888 0h-104v265q0 81 -27 117q-34 45 -117 45t-116 -45q-27 -36 -27 -117v-265h-104v265q0 81 -27 117q-34 45 -117 45t-116 -45q-27 -36 -27 -117v-265h-104v265q0 266 247 266q132 0 196 -81q63 81 195 81v0q248 0 248 -266v-265z" />
    <glyph glyph-name="n" unicode="n" horiz-adv-x="576" 
d="M495 0h-104v265q0 81 -27 117q-33 45 -116 45t-117 -45q-27 -36 -27 -117v-265h-104v265q0 266 248 266q247 0 247 -266v-265z" />
    <glyph glyph-name="o" unicode="o" horiz-adv-x="560" 
d="M483 265q0 -265 -247 -265q-248 0 -248 265q0 266 248 266v0q247 0 247 -266zM379 265q0 81 -27 117q-33 45 -116 45t-116 -45q-27 -36 -27 -117t27 -117q33 -44 116 -44v0q83 0 116 44q27 36 27 117z" />
    <glyph glyph-name="p" unicode="p" horiz-adv-x="571" 
d="M498 265q0 -265 -248 -265h-143v-209h-104v474q0 266 247 266v0q248 0 248 -266zM394 265q0 81 -27 117q-34 45 -117 45t-116 -45q-27 -36 -27 -117v-161h143q83 0 117 44q27 37 27 117z" />
    <glyph glyph-name="q" unicode="q" horiz-adv-x="576" 
d="M496 -209h-105v209h-143q-248 0 -248 265q0 266 248 266v0q248 0 248 -266v-474zM391 104v161q0 81 -27 117q-33 45 -116 45t-116 -45q-27 -36 -27 -117t27 -117q33 -44 116 -44v0h143z" />
    <glyph glyph-name="r" unicode="r" horiz-adv-x="328" 
d="M268 427q-97 0 -134 -27q-27 -20 -27 -62v-338h-104v338q0 193 265 193v-104z" />
    <glyph glyph-name="s" unicode="s" horiz-adv-x="497" 
d="M429 372h-104q0 24 -14 35q-24 20 -96 20t-96 -20q-14 -11 -14 -35q0 -30 19.5 -40t94.5 -15q91 -6 135 -27q75 -38 75 -132q0 -159 -214 -159t-214 159v0h104q0 -24 14 -35q24 -20 96 -20t96 20q14 11 14 35q0 29 -18 39q-21 11 -95 16q-92 6 -135 27q-76 37 -76 132
q0 159 214 159t214 -159z" />
    <glyph glyph-name="t" unicode="t" horiz-adv-x="327" 
d="M266 -1q-265 0 -265 193v547h104v-209h161v-104h-161v-234q0 -42 27 -62q37 -27 134 -27v-104z" />
    <glyph glyph-name="u" unicode="u" horiz-adv-x="580" 
d="M499 265q0 -265 -248 -265q-247 0 -247 265v266h104v-266q0 -81 27 -117q33 -44 116 -44t116 44q27 36 27 117v266h105v-266z" />
    <glyph glyph-name="v" unicode="v" horiz-adv-x="548" 
d="M478 531l-212 -538h-97l-212 538h112l148 -377l149 377h112z" />
    <glyph glyph-name="w" unicode="w" horiz-adv-x="966" 
d="M885 265q0 -265 -248 -265q-133 0 -195 80q-63 -80 -196 -80q-247 0 -247 265v266h104v-266q0 -81 27 -117q33 -44 116 -44t117 44q27 37 27 117v266h104v-266q0 -81 27 -117q33 -44 116 -44t117 44q27 37 27 117v266h104v-266z" />
    <glyph glyph-name="x" unicode="x" horiz-adv-x="524" 
d="M454 0h-124l-117 176l-117 -176h-125l179 270l-171 259h125l109 -164l109 164h125l-172 -259z" />
    <glyph glyph-name="y" unicode="y" horiz-adv-x="575" 
d="M494 -15q0 -194 -248 -194h-195v104h195q94 0 126 33q18 18 18 57v15h-144q-247 0 -247 265v266h104v-266q0 -81 27 -117q33 -44 116 -44h144v427h104v-546z" />
    <glyph glyph-name="z" unicode="z" horiz-adv-x="566" 
d="M499 0h-495v52q0 265 247 265q125 0 140 110h-387v104h495v-52q0 -266 -248 -266v0q-124 0 -140 -109h388v-104z" />
    <glyph glyph-name="braceleft" unicode="{" horiz-adv-x="414" 
d="M359 -209q-254 0 -254 237v36q0 87 -27 121q-23 28 -73 28v104q50 0 73 29q27 34 27 121v35q0 237 254 237v-104q-75 0 -109 -25q-41 -31 -41 -108v0v-35q0 -137 -63 -202q63 -65 63 -201v-36q0 -77 41 -108q34 -25 109 -25v-104z" />
    <glyph glyph-name="bar" unicode="|" horiz-adv-x="194" 
d="M109 -105h-104v844h104v-844z" />
    <glyph glyph-name="braceright" unicode="}" horiz-adv-x="419" 
d="M355 213q-50 0 -72 -28q-28 -34 -28 -121v-36q0 -237 -254 -237v104q75 0 109 25q41 31 41 108v36q0 136 63 201q-63 65 -63 202v35q0 77 -41 108q-34 25 -109 25v104q254 0 254 -237v-35q0 -87 28 -121q22 -29 72 -29v-104z" />
    <glyph glyph-name="asciitilde" unicode="~" horiz-adv-x="583" 
d="M516 672l-34 -40q-58 -68 -130 -68q-49 0 -125 40q-56 29 -77 29q-25 0 -52 -32v0l-33 -40l-80 68l34 39q59 68 131 68q49 0 125 -40q55 -29 76 -29q25 0 52 32l34 40z" />
    <glyph glyph-name="Adieresis" unicode="&#xc4;" horiz-adv-x="585" 
d="M405 800h-104v104h104v-104zM197 800h-105v104h105v-104zM495 0h-104v265h-287v-265h-104v473q0 266 247 266v0q248 0 248 -266v-473zM391 369v104q0 81 -27 117q-34 45 -117 45t-116 -45q-27 -36 -27 -117v-104h287z" />
    <glyph glyph-name="Aring" unicode="&#xc5;" horiz-adv-x="577" 
d="M358 909q0 -46 -32.5 -78t-78.5 -32v0q-45 0 -77.5 32t-32.5 78t32.5 78t77.5 32q46 0 78.5 -32t32.5 -78zM495 0h-104v265h-287v-265h-104v473q0 266 247 266v0q248 0 248 -266v-473zM305 909q0 24 -17 41t-41 17v0q-24 0 -41 -17t-17 -41t17 -41t41 -17t41 17t17 41z
M391 369v104q0 81 -27 117q-34 45 -117 45t-116 -45q-27 -36 -27 -117v-104h287z" />
    <glyph glyph-name="Ccedilla" unicode="&#xc7;" horiz-adv-x="543" 
d="M488 265q0 -236 -199 -262v-60l-1 -1q0 -21 -15 -36t-37 -15q-8 0 -16 -8t-8 -16q0 -24 24 -24q11 0 17 7l74 -74q-37 -37 -90 -37q-54 0 -91 38t-37 90q0 37 21 69t55 47v21q-193 30 -193 261v208q0 266 248 266t248 -266h-105q0 81 -27 117q-33 45 -116 45t-116 -45
q-27 -36 -27 -117v-208q0 -81 27 -117q33 -44 116 -44t116 44q27 36 27 117h105z" />
    <glyph glyph-name="Eacute" unicode="&#xc9;" horiz-adv-x="452" 
d="M385 837l-51 -10l-296 -59l-20 102l51 11l296 59zM404 0h-401v739h401v-104h-296v-214h243v-104h-243v-213h296v-104z" />
    <glyph glyph-name="Ntilde" unicode="&#xd1;" horiz-adv-x="589" 
d="M513 872l-33 -40q-56 -68 -129 -68q-48 0 -126 40q-56 29 -77 29q-26 0 -53 -32v0l-33 -40l-79 68l33 39q58 68 130 68q49 0 126 -40q56 -29 77 -29q25 0 52 32l33 40zM495 0h-104v473q0 81 -27 117q-34 45 -117 45t-116 -45q-27 -36 -27 -117v-473h-104v473
q0 266 247 266q248 0 248 -266v-473z" />
    <glyph glyph-name="Odieresis" unicode="&#xd6;" horiz-adv-x="585" 
d="M394 795h-104v104h104v-104zM185 795h-104v104h104v-104zM489 265q0 -265 -248 -265q-247 0 -247 265v208q0 266 247 266q248 0 248 -266v0v-208zM385 265v208q0 81 -27 117q-34 45 -117 45t-116 -45q-27 -36 -27 -117v-208q0 -81 27 -117q33 -44 116 -44t117 44
q27 37 27 117z" />
    <glyph glyph-name="Udieresis" unicode="&#xdc;" horiz-adv-x="609" 
d="M404 795h-104v104h104v-104zM196 795h-104v104h104v-104zM495 265q0 -265 -248 -265q-247 0 -247 265v474h104v-474q0 -81 27 -117q33 -44 116 -44t117 44q27 37 27 117v474h104v-474z" />
    <glyph glyph-name="aacute" unicode="&#xe1;" horiz-adv-x="503" 
d="M398 617l-51 -10l-296 -59l-20 102l51 11l296 59zM429 159q0 -159 -214 -159t-214 159t214 159v0q72 0 96 20q14 11 14 34q0 24 -14 35q-24 20 -96 20t-96 -20q-14 -11 -14 -35h-104q0 159 214 159t214 -159v0v-213zM325 159v70q-45 -16 -110 -16v0q-72 0 -96 -19
q-14 -11 -14 -35t14 -35q24 -20 96 -20v0q72 0 96 20q14 11 14 35z" />
    <glyph glyph-name="agrave" unicode="&#xe0;" horiz-adv-x="504" 
d="M398 650l-20 -102l-51 10l-297 59l21 103l51 -11zM429 159q0 -62 -37 -102q-54 -57 -177 -57q-215 0 -215 159q0 62 37 102q54 57 178 57v0q72 0 96 20q14 11 14 34q0 24 -14 35q-24 20 -96 20q-73 0 -97 -20q-14 -11 -14 -35h-104q0 159 215 159q123 0 177 -57
q37 -40 37 -102v0v-213zM325 159v70q-46 -16 -110 -16v0q-73 0 -97 -19q-14 -11 -14 -35t14 -35q24 -20 97 -20v0q72 0 96 20q14 11 14 35z" />
    <glyph glyph-name="acircumflex" unicode="&#xe2;" horiz-adv-x="505" 
d="M426 631l-47 -93l-166 84l-166 -84l-47 93l213 108zM429 159q0 -62 -37 -102q-54 -57 -177 -57q-215 0 -215 159q0 62 37 102q54 57 178 57v0q72 0 96 20q14 11 14 34q0 24 -14 35q-24 20 -96 20q-73 0 -97 -20q-14 -11 -14 -35h-104q0 159 215 159q123 0 177 -57
q37 -40 37 -102v0v-213zM325 159v70q-46 -16 -110 -16v0q-73 0 -97 -19q-14 -11 -14 -35t14 -35q24 -20 97 -20v0q72 0 96 20q14 11 14 35z" />
    <glyph glyph-name="adieresis" unicode="&#xe4;" horiz-adv-x="503" 
d="M363 635h-105v104h105v-104zM154 635h-104v104h104v-104zM429 159q0 -62 -37 -102q-54 -57 -177 -57q-215 0 -215 159q0 62 37 102q54 57 178 57v0q72 0 96 20q14 11 14 34q0 24 -14 35q-24 20 -96 20q-73 0 -97 -20q-14 -11 -14 -35h-104q0 159 215 159q123 0 177 -57
q37 -40 37 -102v0v-213zM325 159v70q-46 -16 -110 -16v0q-73 0 -97 -19q-14 -11 -14 -35t14 -35q24 -20 97 -20v0q72 0 96 20q14 11 14 35z" />
    <glyph glyph-name="atilde" unicode="&#xe3;" horiz-adv-x="540" 
d="M481 672l-34 -40q-57 -68 -130 -68q-49 0 -125 40q-56 29 -77 29q-25 0 -52 -32v0l-34 -40l-79 68l34 39q59 68 131 68q49 0 125 -40q55 -29 76 -29q26 0 52 32l33 40zM429 159q0 -159 -215 -159q-123 0 -177 57q-37 40 -37 102t37 102q54 57 177 57v0q73 0 97 20
q14 11 14 34q0 24 -14 35q-24 20 -97 20q-72 0 -96 -20q-14 -11 -14 -35h-104q0 62 37 102q54 57 177 57q215 0 215 -159v0v-213zM325 159v70q-46 -16 -111 -16v0q-72 0 -96 -19q-14 -11 -14 -35t14 -35q24 -20 96 -20v0q73 0 97 20q14 11 14 35z" />
    <glyph glyph-name="aring" unicode="&#xe5;" horiz-adv-x="508" 
d="M330 696q0 -47 -33 -80t-80 -33v0q-47 0 -80 33t-33 80t33 80t80 33t80 -33t33 -80zM431 0h-214q-215 0 -215 159q0 62 37 102q54 57 178 57h110v54q0 24 -14 35q-24 20 -96 20q-73 0 -97 -20q-14 -11 -14 -35h-104q0 159 215 159v0q123 0 177 -57q37 -40 37 -102v-372z
M260 696q0 18 -12.5 30.5t-30.5 12.5v0q-18 0 -31 -12.5t-13 -30.5t13 -30.5t31 -12.5t30.5 12.5t12.5 30.5zM327 104v109h-110q-73 0 -97 -19q-14 -11 -14 -35v0q0 -24 14 -35q24 -20 97 -20h110z" />
    <glyph glyph-name="ccedilla" unicode="&#xe7;" horiz-adv-x="521" 
d="M472 162q-39 -138 -183 -159v-60l-1 -1q0 -21 -15.5 -36t-36.5 -15q-10 0 -17 -8t-7 -16q0 -10 6.5 -17t17.5 -7q10 0 17 7l74 -74q-37 -37 -90 -37q-55 0 -91.5 37.5t-36.5 90.5q0 54 37 90q17 16 38 26v20q-195 28 -195 262q0 266 248 266q190 0 235 -162h-111
q-31 58 -124 58q-83 0 -117 -45q-27 -36 -27 -117q0 -80 27 -117q34 -44 117 -44q94 0 124 58h111z" />
    <glyph glyph-name="eacute" unicode="&#xe9;" horiz-adv-x="569" 
d="M420 617l-51 -10l-296 -59l-21 102l51 11l297 59zM484 0h-248q-247 0 -247 265q0 266 247 266q248 0 248 -266v-52h-388q16 -109 140 -109h248v-104zM376 317q-15 110 -140 110v0q-124 0 -140 -110h280z" />
    <glyph glyph-name="egrave" unicode="&#xe8;" horiz-adv-x="568" 
d="M421 650l-20 -102l-51 10l-297 59l21 103l51 -11zM484 0h-247q-248 0 -248 265q0 266 248 266q247 0 247 -266v-52h-388q16 -109 141 -109h247v-104zM377 317q-16 110 -140 110v0q-125 0 -141 -110h281z" />
    <glyph glyph-name="ecircumflex" unicode="&#xea;" horiz-adv-x="573" 
d="M450 631l-47 -93l-166 84l-166 -84l-47 93l213 108zM485 0h-248q-247 0 -247 265q0 266 247 266q248 0 248 -266v-52h-388q16 -109 140 -109h248v-104zM377 317q-15 110 -140 110v0q-124 0 -140 -110h280z" />
    <glyph glyph-name="edieresis" unicode="&#xeb;" horiz-adv-x="564" 
d="M383 635h-104v104h104v-104zM175 635h-104v104h104v-104zM481 0h-247q-248 0 -248 265q0 266 248 266q247 0 247 -266v-52h-387q15 -109 140 -109h247v-104zM374 317q-16 110 -140 110v0q-125 0 -140 -110h280z" />
    <glyph glyph-name="iacute" unicode="&#xed;" horiz-adv-x="358" 
d="M295 637l-51 -10l-296 -59l-20 102l51 11l296 59zM265 0q-265 0 -265 192v339h104v-339q0 -42 27 -61q37 -27 134 -27v-104z" />
    <glyph glyph-name="igrave" unicode="&#xec;" horiz-adv-x="361" 
d="M276 670l-20 -102l-51 10l-297 59l21 103l51 -11zM266 0q-266 0 -266 192v339h104v-339q0 -41 28 -61q37 -27 134 -27v-104z" />
    <glyph glyph-name="icircumflex" unicode="&#xee;" horiz-adv-x="368" 
d="M264 631l-47 -93l-166 84l-166 -84l-47 93l213 108zM266 0q-266 0 -266 192v339h104v-339q0 -41 28 -61q37 -27 134 -27v-104z" />
    <glyph glyph-name="idieresis" unicode="&#xef;" horiz-adv-x="335" 
d="M98 635h-104v104h104v-104zM260 0q-266 0 -266 192v339h104v-339q0 -41 28 -61q37 -27 134 -27v-104z" />
    <glyph glyph-name="ntilde" unicode="&#xf1;" horiz-adv-x="591" 
d="M515 672l-34 -40q-58 -68 -130 -68q-49 0 -125 40q-56 29 -77 29q-25 0 -52 -32v0l-33 -40l-80 68l34 39q59 68 131 68q49 0 125 -40q55 -29 76 -29q25 0 52 32l34 40zM499 0h-105v265q0 81 -27 117q-33 45 -116 45t-116 -45q-27 -36 -27 -117v-265h-104v265
q0 266 247 266q248 0 248 -266v-265z" />
    <glyph glyph-name="oacute" unicode="&#xf3;" horiz-adv-x="574" 
d="M415 617l-51 -10l-296 -59l-21 102l51 11l297 59zM483 265q0 -265 -248 -265q-247 0 -247 265q0 266 247 266v0q248 0 248 -266zM379 265q0 81 -27 117q-34 45 -117 45t-116 -45q-27 -36 -27 -117t27 -117q33 -44 116 -44v0q83 0 117 44q27 37 27 117z" />
    <glyph glyph-name="ograve" unicode="&#xf2;" horiz-adv-x="573" 
d="M425 650l-21 -102l-51 10l-296 59l20 103l51 -11zM483 265q0 -265 -248 -265q-247 0 -247 265q0 266 247 266v0q248 0 248 -266zM378 265q0 81 -27 117q-33 45 -116 45t-116 -45q-27 -36 -27 -117t27 -117q33 -44 116 -44v0q83 0 116 44q27 36 27 117z" />
    <glyph glyph-name="ocircumflex" unicode="&#xf4;" horiz-adv-x="575" 
d="M444 631l-47 -93l-166 84l-166 -84l-47 93l213 108zM483 265q0 -265 -247 -265q-248 0 -248 265q0 266 248 266v0q247 0 247 -266zM379 265q0 81 -27 117q-33 45 -116 45t-117 -45q-27 -36 -27 -117q0 -80 27 -117q34 -44 117 -44v0q83 0 116 44q27 36 27 117z" />
    <glyph glyph-name="odieresis" unicode="&#xf6;" horiz-adv-x="573" 
d="M389 635h-104v104h104v-104zM181 635h-104v104h104v-104zM482 265q0 -265 -247 -265q-248 0 -248 265q0 266 248 266v0q247 0 247 -266zM378 265q0 81 -27 117q-33 45 -116 45t-117 -45q-27 -36 -27 -117q0 -80 27 -117q34 -44 117 -44v0q83 0 116 44q27 36 27 117z" />
    <glyph glyph-name="otilde" unicode="&#xf5;" horiz-adv-x="579" 
d="M495 672l-34 -40q-58 -68 -130 -68q-49 0 -125 40q-56 29 -76 29q-26 0 -53 -32v0l-34 -40l-79 68l34 39q59 68 131 68q49 0 125 -40q55 -29 76 -29q25 0 52 32l34 40zM480 265q0 -265 -248 -265q-247 0 -247 265q0 266 247 266v0q248 0 248 -266zM376 265q0 81 -27 117
q-34 45 -117 45t-116 -45q-27 -36 -27 -117t27 -117q33 -44 116 -44v0q83 0 117 44q27 37 27 117z" />
    <glyph glyph-name="uacute" unicode="&#xfa;" horiz-adv-x="574" 
d="M420 637l-51 -10l-296 -59l-21 102l52 11l296 59zM490 265q0 -265 -247 -265q-248 0 -248 265v266h104v-266q0 -80 27 -117q34 -44 117 -44t116 44q27 36 27 117v266h104v-266z" />
    <glyph glyph-name="ugrave" unicode="&#xf9;" horiz-adv-x="577" 
d="M431 670l-20 -102l-51 10l-297 59l21 103l51 -11zM491 265q0 -265 -247 -265q-248 0 -248 265v266h104v-266q0 -80 27 -117q34 -44 117 -44t116 44q27 36 27 117v266h104v-266z" />
    <glyph glyph-name="ucircumflex" unicode="&#xfb;" horiz-adv-x="575" 
d="M460 651l-47 -93l-166 84l-166 -84l-47 93l213 108zM492 265q0 -265 -248 -265q-247 0 -247 265v266h104v-266q0 -81 27 -117q33 -44 116 -44t117 44q27 37 27 117v266h104v-266z" />
    <glyph glyph-name="udieresis" unicode="&#xfc;" horiz-adv-x="574" 
d="M405 635h-104v104h104v-104zM197 635h-104v104h104v-104zM500 265q0 -265 -247 -265q-248 0 -248 265v266h104v-266q0 -80 27 -117q34 -44 117 -44t116 44q27 36 27 117v266h104v-266z" />
    <glyph glyph-name="dagger" unicode="&#x2020;" horiz-adv-x="1066" 
d="M1066 610q-9 40 -105 41q-75 1 -188 -24q-42 -9 -88 -21q-39 25 -85 37q0 39 -11 90q-12 55 -24 67q-12 -12 -24 -67q-11 -51 -11 -90q-127 -33 -201 -166q-138 -64 -227 -127q-55 -40 -81 -73q-21 -27 -21 -47q0 -41 85 -47q70 -4 183 18q13 -73 58 -148
q-65 -59 -65 -123q0 -71 60 -130q63 15 129 109q53 -43 115 -71q62 28 115 71q66 -94 129 -109q60 59 60 130q0 64 -65 123q64 108 62 195q-2 72 -32 156q72 39 125 76q117 82 107 130zM774 519q-18 26 -39 47q51 0 51 -22q0 -10 -12 -25zM277 338q-22 5 -22 19q0 17 31 42
q5 5 12 10q-13 -34 -21 -71zM533 617q-29 -7 -70.5 -41t-58.5 -59q31 -13 61 -13q3 12 25 50t43 63zM565 752q-18 -33 -18 -114l18 -6v120zM418 352q127 32 245 92q27 14 50 28q-71 -13 -147 -13q-102 0 -182 21q-34 -61 -49 -143q37 4 83 15v0v0zM338 34q-21 -34 -21 -107
q0 -59 20 -77q29 7 57 28.5t40 44.5q-55 49 -96 111v0v0zM696 -77q12 -23 40 -44.5t57 -28.5q20 18 20 77q0 73 -21 107q-41 -62 -96 -111zM804 248q-2 68 -18 132q-172 -85 -362 -141q-50 -14 -97 -25q9 -90 61 -173q63 -101 177 -162q126 67 190 183q51 94 49 186q3 0 0 0
zM927 615q-30 8 -83 5q-61 -5 -144 -24q8 -7 17 -14q37 7 65 8q30 1 50 -4q34 -8 27 -32q-14 -46 -149 -116q-155 -81 -325 -121q-72 -18 -123 -19q-33 -2 -53 4q-33 10 -19 38q20 39 119 95l10 23q-94 -47 -153 -91q-71 -53 -71 -86q0 -37 83 -38q64 0 160 22
q233 51 442 164q87 47 135 89q43 38 45 64q1 23 -33 33v0v0zM448 226q-22 -10 -22 -35q0 -15 11 -26.5t27 -11.5q30 0 37 29zM695 226q23 -10 23 -35q0 -15 -11 -26.5t-27 -11.5q-30 0 -37 29zM571 -3q46 0 74 33q4 5 39 67q-44 -54 -113 -54t-113 54q35 -62 39 -67
q28 -33 74 -33z" />
    <glyph glyph-name="degree" unicode="&#xb0;" horiz-adv-x="299" 
d="M223 629q0 -46 -32 -78t-78 -32v0q-46 0 -78 32t-32 78t32 78t78 32t78 -32t32 -78zM171 629q0 24 -17 41t-41 17v0q-24 0 -41 -17t-17 -41t17 -41t41 -17t41 17t17 41z" />
    <glyph glyph-name="cent" unicode="&#xa2;" horiz-adv-x="548" 
d="M488 162q-38 -138 -186 -159v-108h-104v109q-193 30 -193 262q0 231 193 261v110h104v-109q148 -21 186 -159h-111q-20 41 -75 54v-314q54 11 75 53h111zM198 110v311q-51 -13 -71 -54q-18 -35 -18 -101t18 -101q20 -42 71 -55z" />
    <glyph glyph-name="sterling" unicode="&#xa3;" 
 />
    <glyph glyph-name="section" unicode="&#xa7;" horiz-adv-x="520" 
d="M451 -107q0 -83 -39 -135q-57 -76 -187 -76q-129 0 -186 76q-39 53 -39 135h104q0 -63 32 -87q27 -20 89 -20q63 0 90 20q32 24 32 87q0 42 -32 65q-25 18 -103 41q-98 30 -140 61q-72 53 -72 151v0q0 112 71 167q-71 54 -71 150q0 82 39 135q57 76 186 76q130 0 187 -76
q39 -53 39 -135h-104q0 63 -32 87q-27 20 -90 20q-62 0 -89 -20q-32 -24 -32 -87q0 -45 32 -68q26 -19 106 -43q96 -29 137 -60q72 -52 72 -147q0 -114 -74 -169q74 -53 74 -148zM347 210q0 -54 -32 -83q-27 -25 -67 -25q-48 0 -94 30q-50 33 -50 79v0q0 54 31 83
q27 25 68 25q48 0 93 -30q51 -33 51 -79z" />
    <glyph glyph-name="bullet" unicode="&#x2022;" horiz-adv-x="1066" 
d="M1066 610q-9 40 -105 41q-75 1 -188 -24q-42 -9 -88 -21q-39 25 -85 37q0 39 -11 90q-12 55 -24 67q-12 -12 -24 -67q-11 -51 -11 -90q-127 -33 -201 -166q-138 -64 -227 -127q-55 -40 -81 -73q-21 -27 -21 -47q0 -41 85 -47q70 -4 183 18q13 -73 58 -148
q-65 -59 -65 -123q0 -71 60 -130q63 15 129 109q53 -43 115 -71q62 28 115 71q66 -94 129 -109q60 59 60 130q0 64 -65 123q64 108 62 195q-2 72 -32 156q72 39 125 76q117 82 107 130zM774 519q-18 26 -39 47q51 0 51 -22q0 -10 -12 -25zM277 338q-22 5 -22 19q0 17 31 42
q5 5 12 10q-13 -34 -21 -71zM533 617q-29 -7 -70.5 -41t-58.5 -59q31 -13 61 -13q3 12 25 50t43 63zM565 752q-18 -33 -18 -114l18 -6v120zM418 352q127 32 245 92q27 14 50 28q-71 -13 -147 -13q-102 0 -182 21q-34 -61 -49 -143q37 4 83 15v0v0zM338 34q-21 -34 -21 -107
q0 -59 20 -77q29 7 57 28.5t40 44.5q-55 49 -96 111v0v0zM696 -77q12 -23 40 -44.5t57 -28.5q20 18 20 77q0 73 -21 107q-41 -62 -96 -111zM804 248q-2 68 -18 132q-172 -85 -362 -141q-50 -14 -97 -25q9 -90 61 -173q63 -101 177 -162q126 67 190 183q51 94 49 186q3 0 0 0
zM927 615q-30 8 -83 5q-61 -5 -144 -24q8 -7 17 -14q37 7 65 8q30 1 50 -4q34 -8 27 -32q-14 -46 -149 -116q-155 -81 -325 -121q-72 -18 -123 -19q-33 -2 -53 4q-33 10 -19 38q20 39 119 95l10 23q-94 -47 -153 -91q-71 -53 -71 -86q0 -37 83 -38q64 0 160 22
q233 51 442 164q87 47 135 89q43 38 45 64q1 23 -33 33v0v0zM448 226q-22 -10 -22 -35q0 -15 11 -26.5t27 -11.5q30 0 37 29zM695 226q23 -10 23 -35q0 -15 -11 -26.5t-27 -11.5q-30 0 -37 29zM571 -3q46 0 74 33q4 5 39 67q-44 -54 -113 -54t-113 54q35 -62 39 -67
q28 -33 74 -33z" />
    <glyph glyph-name="paragraph" unicode="&#xb6;" horiz-adv-x="1066" 
d="M1066 610q-9 40 -105 41q-75 1 -188 -24q-42 -9 -88 -21q-39 25 -85 37q0 39 -11 90q-12 55 -24 67q-12 -12 -24 -67q-11 -51 -11 -90q-127 -33 -201 -166q-138 -64 -227 -127q-55 -40 -81 -73q-21 -27 -21 -47q0 -41 85 -47q70 -4 183 18q13 -73 58 -148
q-65 -59 -65 -123q0 -71 60 -130q63 15 129 109q53 -43 115 -71q62 28 115 71q66 -94 129 -109q60 59 60 130q0 64 -65 123q64 108 62 195q-2 72 -32 156q72 39 125 76q117 82 107 130zM774 519q-18 26 -39 47q51 0 51 -22q0 -10 -12 -25zM277 338q-22 5 -22 19q0 17 31 42
q5 5 12 10q-13 -34 -21 -71zM533 617q-29 -7 -70.5 -41t-58.5 -59q31 -13 61 -13q3 12 25 50t43 63zM565 752q-18 -33 -18 -114l18 -6v120zM418 352q127 32 245 92q27 14 50 28q-71 -13 -147 -13q-102 0 -182 21q-34 -61 -49 -143q37 4 83 15v0v0zM338 34q-21 -34 -21 -107
q0 -59 20 -77q29 7 57 28.5t40 44.5q-55 49 -96 111v0v0zM696 -77q12 -23 40 -44.5t57 -28.5q20 18 20 77q0 73 -21 107q-41 -62 -96 -111zM804 248q-2 68 -18 132q-172 -85 -362 -141q-50 -14 -97 -25q9 -90 61 -173q63 -101 177 -162q126 67 190 183q51 94 49 186q3 0 0 0
zM927 615q-30 8 -83 5q-61 -5 -144 -24q8 -7 17 -14q37 7 65 8q30 1 50 -4q34 -8 27 -32q-14 -46 -149 -116q-155 -81 -325 -121q-72 -18 -123 -19q-33 -2 -53 4q-33 10 -19 38q20 39 119 95l10 23q-94 -47 -153 -91q-71 -53 -71 -86q0 -37 83 -38q64 0 160 22
q233 51 442 164q87 47 135 89q43 38 45 64q1 23 -33 33v0v0zM448 226q-22 -10 -22 -35q0 -15 11 -26.5t27 -11.5q30 0 37 29zM695 226q23 -10 23 -35q0 -15 -11 -26.5t-27 -11.5q-30 0 -37 29zM571 -3q46 0 74 33q4 5 39 67q-44 -54 -113 -54t-113 54q35 -62 39 -67
q28 -33 74 -33z" />
    <glyph glyph-name="germandbls" unicode="&#xdf;" horiz-adv-x="576" 
d="M497 210q0 -121 -71 -174q-49 -36 -126 -36h-140v104h140q55 0 76 27q17 23 17 79t-17 79q-21 28 -76 28h-140v104h36q55 0 76 28q17 23 17 79t-17 79q-21 28 -76 28t-76 -28q-17 -23 -17 -79v-633h-104v633q0 122 71 175q49 36 126 36t126 -36q71 -53 71 -175
q0 -68 -23 -116v0q127 -38 127 -202z" />
    <glyph glyph-name="registered" unicode="&#xae;" horiz-adv-x="1029" 
d="M936 265q0 -195 -138.5 -333.5t-334.5 -138.5q-195 0 -333.5 138.5t-138.5 333.5t138.5 333.5t333.5 138.5v0q196 0 334.5 -138.5t138.5 -333.5zM831 265q0 152 -108 260t-260 108t-260 -108t-108 -260t108 -260t260 -108v0q152 0 260 108t108 260zM619 426
q-97 0 -134 -27q-28 -20 -28 -61v-339h-104v339q0 192 266 192v-104z" />
    <glyph glyph-name="copyright" unicode="&#xa9;" horiz-adv-x="1034" 
d="M931 265q0 -195 -138.5 -333.5t-333.5 -138.5q-196 0 -334 138.5t-138 333.5t138 333.5t334 138.5v0q195 0 333.5 -138.5t138.5 -333.5zM827 265q0 152 -108 260t-260 108t-260 -108t-108 -260t108 -260t260 -108v0q152 0 260 108t108 260zM701 162q-43 -162 -235 -162
q-247 0 -247 265q0 266 247 266q192 0 235 -162h-110q-31 58 -125 58q-83 0 -116 -45q-27 -36 -27 -117t27 -117q33 -44 116 -44q95 0 125 58v0h110z" />
    <glyph glyph-name="trademark" unicode="&#x2122;" horiz-adv-x="1095" 
d="M994 260h-104v213q0 78 -26 115q-31 44 -107 46v-374h-105v375h-132v-375h-105v479h331q248 0 248 -266v-213zM363 635h-132v-375h-104v375h-132v104h368v-104z" />
    <glyph glyph-name="acute" unicode="&#xb4;" horiz-adv-x="434" 
d="M360 617l-51 -10l-297 -59l-20 102l51 11l296 59z" />
    <glyph glyph-name="dieresis" unicode="&#xa8;" horiz-adv-x="394" 
d="M310 635h-105v104h105v-104zM101 635h-104v104h104v-104z" />
    <glyph glyph-name="AE" unicode="&#xc6;" horiz-adv-x="840" 
d="M791 0h-400v265h-287v-265h-104v473q0 266 248 266h543v-104h-296v-214h244v-104h-244v-213h296v-104zM391 369v266h-143q-83 0 -117 -45q-27 -36 -27 -117v-104h287z" />
    <glyph glyph-name="Oslash" unicode="&#xd8;" horiz-adv-x="578" 
d="M500 713l-43 -76q37 -64 37 -164v-208q0 -265 -248 -265q-77 0 -132 28l-30 -54l-91 51l43 77q-37 63 -37 163v208q0 266 247 266q79 0 133 -29l29 54zM328 619q-34 16 -82 16q-83 0 -116 -45q-27 -36 -27 -117v-208q0 -15 2 -41zM390 265v208q0 15 -2 41l-223 -395
q32 -15 81 -15q83 0 117 44q27 37 27 117z" />
    <glyph glyph-name="plusminus" unicode="&#xb1;" 
 />
    <glyph glyph-name="yen" unicode="&#xa5;" 
 />
    <glyph glyph-name="mu" unicode="&#xb5;" 
 />
    <glyph glyph-name="mu" unicode="&#x3bc;" 
 />
    <glyph glyph-name="ordfeminine" unicode="&#xaa;" 
 />
    <glyph glyph-name="ordmasculine" unicode="&#xba;" 
 />
    <glyph glyph-name="ae" unicode="&#xe6;" horiz-adv-x="881" 
d="M813 0h-605q-214 0 -214 158q0 159 214 159h110v55q0 24 -14 35q-24 20 -96 20t-96 -20q-14 -11 -14 -35h-104q0 159 214 159q125 0 180 -60q63 60 177 60q248 0 248 -265v-52h-388q16 -110 140 -110h248v-104zM705 318q-15 109 -140 109v0q-124 0 -140 -109h280z
M354 104q-26 45 -33 109h-113q-72 0 -96 -20q-14 -11 -14 -35q0 -26 17 -37q24 -17 93 -17v0h146z" />
    <glyph glyph-name="oslash" unicode="&#xf8;" horiz-adv-x="571" 
d="M493 469l-39 -45q35 -60 35 -159q0 -265 -248 -265q-79 0 -130 27l-32 -36l-76 73l31 33q-40 64 -40 168q0 266 247 266q83 0 140 -32l33 39zM309 416q-28 11 -68 11q-83 0 -116 -45q-27 -36 -27 -117q0 -53 10 -82v0zM385 265q0 42 -7 71l-195 -225q22 -7 58 -7v0
q83 0 117 44q27 37 27 117z" />
    <glyph glyph-name="questiondown" unicode="&#xbf;" 
 />
    <glyph glyph-name="exclamdown" unicode="&#xa1;" 
 />
    <glyph glyph-name="logicalnot" unicode="&#xac;" 
 />
    <glyph glyph-name="florin" unicode="&#x192;" horiz-adv-x="328" 
d="M105 426h161v104h-161v16q0 42 27 62q37 27 134 27v0v104q-266 0 -266 -193v-567q0 -42 -27 -62q-37 -27 -134 -27v0v-104q266 0 266 193v447z" />
    <glyph glyph-name="guillemotleft" unicode="&#xab;" horiz-adv-x="669" 
d="M312 97l-74 -73l-241 241l241 241l74 -73l-168 -168zM600 97l-74 -73l-241 241l241 241l74 -73l-168 -168z" />
    <glyph glyph-name="guillemotright" unicode="&#xbb;" horiz-adv-x="665" 
d="M288 97l74 -73l241 241l-241 241l-74 -73l168 -168zM0 97l74 -73l241 241l-241 241l-74 -73l168 -168z" />
    <glyph glyph-name="ellipsis" unicode="&#x2026;" horiz-adv-x="621" 
d="M110 0h-105v104h105v-104zM320 0h-105v104h105v-104zM530 0h-105v104h105v-104z" />
    <glyph glyph-name="nonbreakingspace" unicode="&#xa0;" 
 />
    <glyph glyph-name="Agrave" unicode="&#xc0;" horiz-adv-x="590" 
d="M430 860l-20 -102l-51 10l-296 59l20 103l51 -11zM490 0h-104v265h-287v-265h-104v473q0 266 247 266v0q248 0 248 -266v-473zM386 369v104q0 81 -27 117q-34 45 -117 45t-116 -45q-27 -36 -27 -117v-104h287z" />
    <glyph glyph-name="Atilde" unicode="&#xc3;" horiz-adv-x="595" 
d="M508 882l-34 -40q-57 -68 -130 -68q-49 0 -125 40q-56 29 -77 29q-25 0 -52 -32v0l-34 -40l-79 68l34 39q59 68 131 68q49 0 125 -40q55 -29 76 -29q25 0 52 32l34 40zM494 0h-104v265h-287v-265h-104v473q0 266 248 266v0q247 0 247 -266v-473zM390 369v104
q0 81 -27 117q-33 45 -116 45t-117 -45q-27 -36 -27 -117v-104h287z" />
    <glyph glyph-name="Otilde" unicode="&#xd5;" horiz-adv-x="590" 
d="M507 882l-34 -40q-58 -68 -130 -68q-48 0 -125 40q-56 29 -77 29q-25 0 -52 -32v0l-34 -40l-79 68l33 39q58 69 130 69q49 0 127 -41q55 -29 76 -29q26 0 52 32l33 40zM493 265q0 -265 -247 -265q-248 0 -248 265v208q0 266 248 266q247 0 247 -266v0v-208zM389 265v208
q0 81 -27 117q-33 45 -116 45t-117 -45q-27 -36 -27 -117v-208q0 -80 27 -117q34 -44 117 -44t116 44q27 36 27 117z" />
    <glyph glyph-name="OE" unicode="&#x152;" horiz-adv-x="833" 
d="M784 0h-401v34q-56 -34 -143 -34q-247 0 -247 265v208q0 266 247 266q87 0 143 -35v35h401v-104h-296v-214h244v-104h-244v-213h296v-104zM383 265v208q0 81 -27 117q-33 45 -116 45t-116 -45q-27 -36 -27 -117v-208q0 -81 27 -117q33 -44 116 -44t116 44q27 36 27 117z
" />
    <glyph glyph-name="oe" unicode="&#x153;" horiz-adv-x="964" 
d="M876 0h-248q-132 0 -195 80q-63 -80 -195 -80q-248 0 -248 265q0 266 248 266q132 0 195 -81q63 81 195 81q248 0 248 -266v-52h-388q16 -109 140 -109h248v-104zM769 317q-16 110 -141 110q-124 0 -140 -110h281zM381 265q0 81 -27 117q-33 45 -116 45t-117 -45
q-27 -36 -27 -117q0 -80 27 -117q34 -44 117 -44t116 44q27 36 27 117z" />
    <glyph glyph-name="endash" unicode="&#x2013;" horiz-adv-x="484" 
d="M381 213h-381v104h381v-104z" />
    <glyph glyph-name="emdash" unicode="&#x2014;" horiz-adv-x="858" 
d="M755 213h-755v104h755v-104z" />
    <glyph glyph-name="quotedblleft" unicode="&#x201c;" horiz-adv-x="407" 
d="M313 479h-104v260h104v-260zM105 479h-104v260h104v-260z" />
    <glyph glyph-name="quotedblright" unicode="&#x201d;" horiz-adv-x="407" 
d="M313 479h-104v260h104v-260zM105 479h-104v260h104v-260z" />
    <glyph glyph-name="quoteleft" unicode="&#x2018;" horiz-adv-x="199" 
d="M105 479h-104v260h104v-260z" />
    <glyph glyph-name="quoteright" unicode="&#x2019;" horiz-adv-x="199" 
d="M105 479h-104v260h104v-260z" />
    <glyph glyph-name="divide" unicode="&#xf7;" 
 />
    <glyph glyph-name="ydieresis" unicode="&#xff;" horiz-adv-x="585" 
d="M406 635h-104v104h104v-104zM198 635h-104v104h104v-104zM497 -15q0 -194 -248 -194h-195v104h195q94 0 126 33q18 18 18 57v15h-144q-247 0 -247 265v266h104v-266q0 -81 27 -117q33 -44 116 -44h144v427h104v-546z" />
    <glyph glyph-name="Ydieresis" unicode="&#x178;" horiz-adv-x="582" 
d="M405 805h-104v104h104v-104zM197 805h-104v104h104v-104zM498 531q0 -234 -195 -262v-269h-105v269q-195 28 -195 262v208h104v-208q0 -81 27 -117q33 -45 116 -45t117 45q27 36 27 117v208h104v-208z" />
    <glyph glyph-name="currency" unicode="&#xa4;" 
 />
    <glyph glyph-name="guilsinglleft" unicode="&#x2039;" horiz-adv-x="381" 
d="M312 97l-74 -73l-241 241l241 241l74 -73l-168 -168z" />
    <glyph glyph-name="guilsinglright" unicode="&#x203a;" horiz-adv-x="373" 
d="M311 265l-241 -241l-74 73l168 168l-168 168l74 73z" />
    <glyph glyph-name="daggerdbl" unicode="&#x2021;" 
 />
    <glyph glyph-name="periodcentered" unicode="&#xb7;" 
 />
    <glyph glyph-name="periodcentered" unicode="&#x2219;" 
 />
    <glyph glyph-name="quotesinglbase" unicode="&#x201a;" 
 />
    <glyph glyph-name="quotedblbase" unicode="&#x201e;" horiz-adv-x="407" 
d="M313 479h-104v260h104v-260zM105 479h-104v260h104v-260z" />
    <glyph glyph-name="perthousand" unicode="&#x2030;" horiz-adv-x="1215" 
d="M1163 171q0 -171 -161 -171t-161 171t161 171v0q161 0 161 -171zM782 171q0 -171 -161 -171t-161 171t161 171v0q161 0 161 -171zM596 699l-324 -784l-96 39l323 785zM322 516q0 -171 -161 -171t-161 171t161 171v0q161 0 161 -171zM1062 171q0 41 -12.5 55.5t-47.5 14.5
t-47.5 -14.5t-12.5 -55.5t12.5 -56t47.5 -15v0q35 0 47.5 15t12.5 56zM681 171q0 41 -12.5 55.5t-47.5 14.5t-47.5 -14.5t-12.5 -55.5t12.5 -56t47.5 -15v0q35 0 47.5 15t12.5 56zM222 516q0 40 -13 55t-48 15t-47.5 -15t-12.5 -55q0 -41 12.5 -56t47.5 -15v0q35 0 48 15
t13 56z" />
    <glyph glyph-name="Acircumflex" unicode="&#xc2;" horiz-adv-x="590" 
d="M465 854l-47 -93l-166 84l-166 -84l-47 93l213 108zM500 0h-104v265h-287v-265h-104v473q0 266 247 266v0q248 0 248 -266v-473zM396 369v104q0 81 -27 117q-34 45 -117 45t-116 -45q-27 -36 -27 -117v-104h287z" />
    <glyph glyph-name="Ecircumflex" unicode="&#xca;" horiz-adv-x="459" 
d="M411 871l-47 -93l-166 84l-166 -84l-47 93l213 108zM401 0h-400v739h400v-104h-296v-214h244v-104h-244v-213h296v-104z" />
    <glyph glyph-name="Aacute" unicode="&#xc1;" horiz-adv-x="590" 
d="M430 837l-51 -10l-296 -59l-20 102l51 11l296 59zM500 0h-104v265h-287v-265h-104v473q0 266 247 266v0q248 0 248 -266v-473zM396 369v104q0 81 -27 117q-34 45 -117 45t-116 -45q-27 -36 -27 -117v-104h287z" />
    <glyph glyph-name="Edieresis" unicode="&#xcb;" horiz-adv-x="467" 
d="M360 805h-104v104h104v-104zM152 805h-104v104h104v-104zM404 0h-401v739h401v-104h-296v-214h243v-104h-243v-213h296v-104z" />
    <glyph glyph-name="Egrave" unicode="&#xc8;" horiz-adv-x="470" 
d="M385 880l-20 -102l-51 10l-296 59l20 103l51 -11zM404 0h-401v739h401v-104h-296v-214h243v-104h-243v-213h296v-104z" />
    <glyph glyph-name="Iacute" unicode="&#xcd;" horiz-adv-x="218" 
d="M229 837l-51 -10l-297 -59l-20 102l51 11l296 59zM104 0h-104v739h104v-739z" />
    <glyph glyph-name="Icircumflex" unicode="&#xce;" horiz-adv-x="220" 
d="M265 861l-47 -93l-166 84l-166 -84l-47 93l213 108zM105 0h-104v739h104v-739z" />
    <glyph glyph-name="Idieresis" unicode="&#xcf;" horiz-adv-x="215" 
d="M206 799h-104v104h104v-104zM-2 799h-104v104h104v-104zM102 0h-104v739h104v-739z" />
    <glyph glyph-name="Igrave" unicode="&#xcc;" horiz-adv-x="208" 
d="M241 870l-21 -102l-51 10l-296 59l20 103l52 -11zM106 0h-104v739h104v-739z" />
    <glyph glyph-name="Oacute" unicode="&#xd3;" horiz-adv-x="585" 
d="M428 826l-51 -10l-296 -59l-20 102l51 10l296 59zM489 265q0 -265 -248 -265q-247 0 -247 265v208q0 266 247 266q248 0 248 -266v0v-208zM385 265v208q0 81 -27 117q-34 45 -117 45t-116 -45q-27 -36 -27 -117v-208q0 -81 27 -117q33 -44 116 -44t117 44q27 37 27 117z
" />
    <glyph glyph-name="Ocircumflex" unicode="&#xd4;" horiz-adv-x="585" 
d="M454 851l-47 -93l-166 84l-166 -84l-47 93l213 108zM489 265q0 -265 -248 -265q-247 0 -247 265v208q0 266 247 266q248 0 248 -266v0v-208zM385 265v208q0 81 -27 117q-34 45 -117 45t-116 -45q-27 -36 -27 -117v-208q0 -81 27 -117q33 -44 116 -44t117 44q27 37 27 117
z" />
    <glyph glyph-name="Ograve" unicode="&#xd2;" horiz-adv-x="585" 
d="M429 865l-21 -102l-51 10l-296 59l20 102l51 -10zM489 265q0 -265 -248 -265q-247 0 -247 265v208q0 266 247 266q248 0 248 -266v0v-208zM385 265v208q0 81 -27 117q-34 45 -117 45t-116 -45q-27 -36 -27 -117v-208q0 -81 27 -117q33 -44 116 -44t117 44q27 37 27 117z
" />
    <glyph glyph-name="Uacute" unicode="&#xda;" horiz-adv-x="609" 
d="M434 861l-51 -10l-296 -59l-20 102l51 10l296 59zM497 265q0 -265 -248 -265q-247 0 -247 265v474h104v-474q0 -81 27 -117q33 -44 116 -44t117 44q27 37 27 117v474h104v-474z" />
    <glyph glyph-name="Ucircumflex" unicode="&#xdb;" horiz-adv-x="609" 
d="M462 881l-47 -93l-166 84l-166 -84l-47 93l213 108zM497 265q0 -265 -248 -265q-247 0 -247 265v474h104v-474q0 -81 27 -117q33 -44 116 -44t117 44q27 37 27 117v474h104v-474z" />
    <glyph glyph-name="Ugrave" unicode="&#xd9;" horiz-adv-x="612" 
d="M433 897l-20 -102l-51 10l-296 59l20 102l51 -10zM497 265q0 -265 -248 -265q-247 0 -247 265v474h104v-474q0 -81 27 -117q33 -44 116 -44t116 44q27 36 27 117v474h105v-474z" />
    <glyph glyph-name="circumflex" unicode="&#x2c6;" horiz-adv-x="484" 
d="M416 631l-47 -93l-166 84l-166 -84l-47 93l213 108z" />
    <glyph glyph-name="tilde" unicode="&#x2dc;" horiz-adv-x="583" 
d="M516 672l-34 -40q-58 -68 -130 -68q-49 0 -125 40q-56 29 -77 29q-25 0 -52 -32v0l-33 -40l-80 68l34 39q59 68 131 68q49 0 125 -40q55 -29 76 -29q25 0 52 32l34 40z" />
    <glyph glyph-name="macron" unicode="&#xaf;" 
 />
    <glyph glyph-name="macron" unicode="&#x2c9;" 
 />
    <glyph glyph-name="cedilla" unicode="&#xb8;" horiz-adv-x="271" 
d="M216 -224q-37 -37 -90 -37q-55 0 -91.5 37.5t-36.5 90.5q0 54 37 90q17 17 39 26v73h104l-1 -114q0 -21 -15 -36t-37 -15q-10 0 -17 -8t-7 -16q0 -10 6.5 -17t17.5 -7t17 7v0z" />
    <glyph glyph-name="Zcaron" unicode="&#x17d;" horiz-adv-x="606" 
d="M490 890l-213 -108l-213 108l47 93l166 -84l166 84zM551 0v104h-447q0 102 54 151q33 31 136 68q121 43 171 88q86 78 86 223v105h-551v-105h446q0 -99 -53 -147q-33 -30 -134 -66q-122 -43 -173 -89q-86 -79 -86 -228v-104h551z" />
    <glyph glyph-name="zcaron" unicode="&#x17e;" horiz-adv-x="560" 
d="M465 676l-213 -108l-213 108l47 93l166 -84l166 84zM500 0h-495v52q0 265 247 265q125 0 141 110h-388v104h495v-52q0 -266 -248 -266v0q-124 0 -140 -109h388v-104z" />
    <glyph glyph-name="notequal" unicode="&#x2260;" 
 />
    <glyph glyph-name="infinity" unicode="&#x221e;" horiz-adv-x="1066" 
d="M1066 610q-9 40 -105 41q-75 1 -188 -24q-42 -9 -88 -21q-39 25 -85 37q0 39 -11 90q-12 55 -24 67q-12 -12 -24 -67q-11 -51 -11 -90q-127 -33 -201 -166q-138 -64 -227 -127q-55 -40 -81 -73q-21 -27 -21 -47q0 -41 85 -47q70 -4 183 18q13 -73 58 -148
q-65 -59 -65 -123q0 -71 60 -130q63 15 129 109q53 -43 115 -71q62 28 115 71q66 -94 129 -109q60 59 60 130q0 64 -65 123q64 108 62 195q-2 72 -32 156q72 39 125 76q117 82 107 130zM774 519q-18 26 -39 47q51 0 51 -22q0 -10 -12 -25zM277 338q-22 5 -22 19q0 17 31 42
q5 5 12 10q-13 -34 -21 -71zM533 617q-29 -7 -70.5 -41t-58.5 -59q31 -13 61 -13q3 12 25 50t43 63zM565 752q-18 -33 -18 -114l18 -6v120zM418 352q127 32 245 92q27 14 50 28q-71 -13 -147 -13q-102 0 -182 21q-34 -61 -49 -143q37 4 83 15v0v0zM338 34q-21 -34 -21 -107
q0 -59 20 -77q29 7 57 28.5t40 44.5q-55 49 -96 111v0v0zM696 -77q12 -23 40 -44.5t57 -28.5q20 18 20 77q0 73 -21 107q-41 -62 -96 -111zM804 248q-2 68 -18 132q-172 -85 -362 -141q-50 -14 -97 -25q9 -90 61 -173q63 -101 177 -162q126 67 190 183q51 94 49 186q3 0 0 0
zM927 615q-30 8 -83 5q-61 -5 -144 -24q8 -7 17 -14q37 7 65 8q30 1 50 -4q34 -8 27 -32q-14 -46 -149 -116q-155 -81 -325 -121q-72 -18 -123 -19q-33 -2 -53 4q-33 10 -19 38q20 39 119 95l10 23q-94 -47 -153 -91q-71 -53 -71 -86q0 -37 83 -38q64 0 160 22
q233 51 442 164q87 47 135 89q43 38 45 64q1 23 -33 33v0v0zM448 226q-22 -10 -22 -35q0 -15 11 -26.5t27 -11.5q30 0 37 29zM695 226q23 -10 23 -35q0 -15 -11 -26.5t-27 -11.5q-30 0 -37 29zM571 -3q46 0 74 33q4 5 39 67q-44 -54 -113 -54t-113 54q35 -62 39 -67
q28 -33 74 -33z" />
    <glyph glyph-name="lessequal" unicode="&#x2264;" 
 />
    <glyph glyph-name="greaterequal" unicode="&#x2265;" 
 />
    <glyph glyph-name="partialdiff" unicode="&#x2202;" 
 />
    <glyph glyph-name="summation" unicode="&#x2211;" 
 />
    <glyph glyph-name="product" unicode="&#x220f;" horiz-adv-x="1066" 
d="M1066 610q-9 40 -105 41q-75 1 -188 -24q-42 -9 -88 -21q-39 25 -85 37q0 39 -11 90q-12 55 -24 67q-12 -12 -24 -67q-11 -51 -11 -90q-127 -33 -201 -166q-138 -64 -227 -127q-55 -40 -81 -73q-21 -27 -21 -47q0 -41 85 -47q70 -4 183 18q13 -73 58 -148
q-65 -59 -65 -123q0 -71 60 -130q63 15 129 109q53 -43 115 -71q62 28 115 71q66 -94 129 -109q60 59 60 130q0 64 -65 123q64 108 62 195q-2 72 -32 156q72 39 125 76q117 82 107 130zM774 519q-18 26 -39 47q51 0 51 -22q0 -10 -12 -25zM277 338q-22 5 -22 19q0 17 31 42
q5 5 12 10q-13 -34 -21 -71zM533 617q-29 -7 -70.5 -41t-58.5 -59q31 -13 61 -13q3 12 25 50t43 63zM565 752q-18 -33 -18 -114l18 -6v120zM418 352q127 32 245 92q27 14 50 28q-71 -13 -147 -13q-102 0 -182 21q-34 -61 -49 -143q37 4 83 15v0v0zM338 34q-21 -34 -21 -107
q0 -59 20 -77q29 7 57 28.5t40 44.5q-55 49 -96 111v0v0zM696 -77q12 -23 40 -44.5t57 -28.5q20 18 20 77q0 73 -21 107q-41 -62 -96 -111zM804 248q-2 68 -18 132q-172 -85 -362 -141q-50 -14 -97 -25q9 -90 61 -173q63 -101 177 -162q126 67 190 183q51 94 49 186q3 0 0 0
zM927 615q-30 8 -83 5q-61 -5 -144 -24q8 -7 17 -14q37 7 65 8q30 1 50 -4q34 -8 27 -32q-14 -46 -149 -116q-155 -81 -325 -121q-72 -18 -123 -19q-33 -2 -53 4q-33 10 -19 38q20 39 119 95l10 23q-94 -47 -153 -91q-71 -53 -71 -86q0 -37 83 -38q64 0 160 22
q233 51 442 164q87 47 135 89q43 38 45 64q1 23 -33 33v0v0zM448 226q-22 -10 -22 -35q0 -15 11 -26.5t27 -11.5q30 0 37 29zM695 226q23 -10 23 -35q0 -15 -11 -26.5t-27 -11.5q-30 0 -37 29zM571 -3q46 0 74 33q4 5 39 67q-44 -54 -113 -54t-113 54q35 -62 39 -67
q28 -33 74 -33z" />
    <glyph glyph-name="pi" unicode="&#x3c0;" horiz-adv-x="1066" 
d="M1066 610q-9 40 -105 41q-75 1 -188 -24q-42 -9 -88 -21q-39 25 -85 37q0 39 -11 90q-12 55 -24 67q-12 -12 -24 -67q-11 -51 -11 -90q-127 -33 -201 -166q-138 -64 -227 -127q-55 -40 -81 -73q-21 -27 -21 -47q0 -41 85 -47q70 -4 183 18q13 -73 58 -148
q-65 -59 -65 -123q0 -71 60 -130q63 15 129 109q53 -43 115 -71q62 28 115 71q66 -94 129 -109q60 59 60 130q0 64 -65 123q64 108 62 195q-2 72 -32 156q72 39 125 76q117 82 107 130zM774 519q-18 26 -39 47q51 0 51 -22q0 -10 -12 -25zM277 338q-22 5 -22 19q0 17 31 42
q5 5 12 10q-13 -34 -21 -71zM533 617q-29 -7 -70.5 -41t-58.5 -59q31 -13 61 -13q3 12 25 50t43 63zM565 752q-18 -33 -18 -114l18 -6v120zM418 352q127 32 245 92q27 14 50 28q-71 -13 -147 -13q-102 0 -182 21q-34 -61 -49 -143q37 4 83 15v0v0zM338 34q-21 -34 -21 -107
q0 -59 20 -77q29 7 57 28.5t40 44.5q-55 49 -96 111v0v0zM696 -77q12 -23 40 -44.5t57 -28.5q20 18 20 77q0 73 -21 107q-41 -62 -96 -111zM804 248q-2 68 -18 132q-172 -85 -362 -141q-50 -14 -97 -25q9 -90 61 -173q63 -101 177 -162q126 67 190 183q51 94 49 186q3 0 0 0
zM927 615q-30 8 -83 5q-61 -5 -144 -24q8 -7 17 -14q37 7 65 8q30 1 50 -4q34 -8 27 -32q-14 -46 -149 -116q-155 -81 -325 -121q-72 -18 -123 -19q-33 -2 -53 4q-33 10 -19 38q20 39 119 95l10 23q-94 -47 -153 -91q-71 -53 -71 -86q0 -37 83 -38q64 0 160 22
q233 51 442 164q87 47 135 89q43 38 45 64q1 23 -33 33v0v0zM448 226q-22 -10 -22 -35q0 -15 11 -26.5t27 -11.5q30 0 37 29zM695 226q23 -10 23 -35q0 -15 -11 -26.5t-27 -11.5q-30 0 -37 29zM571 -3q46 0 74 33q4 5 39 67q-44 -54 -113 -54t-113 54q35 -62 39 -67
q28 -33 74 -33z" />
    <glyph glyph-name="integral" unicode="&#x222b;" 
 />
    <glyph glyph-name="Omega" unicode="&#x3a9;" horiz-adv-x="1066" 
d="M1066 610q-9 40 -105 41q-75 1 -188 -24q-42 -9 -88 -21q-39 25 -85 37q0 39 -11 90q-12 55 -24 67q-12 -12 -24 -67q-11 -51 -11 -90q-127 -33 -201 -166q-138 -64 -227 -127q-55 -40 -81 -73q-21 -27 -21 -47q0 -41 85 -47q70 -4 183 18q13 -73 58 -148
q-65 -59 -65 -123q0 -71 60 -130q63 15 129 109q53 -43 115 -71q62 28 115 71q66 -94 129 -109q60 59 60 130q0 64 -65 123q64 108 62 195q-2 72 -32 156q72 39 125 76q117 82 107 130zM774 519q-18 26 -39 47q51 0 51 -22q0 -10 -12 -25zM277 338q-22 5 -22 19q0 17 31 42
q5 5 12 10q-13 -34 -21 -71zM533 617q-29 -7 -70.5 -41t-58.5 -59q31 -13 61 -13q3 12 25 50t43 63zM565 752q-18 -33 -18 -114l18 -6v120zM418 352q127 32 245 92q27 14 50 28q-71 -13 -147 -13q-102 0 -182 21q-34 -61 -49 -143q37 4 83 15v0v0zM338 34q-21 -34 -21 -107
q0 -59 20 -77q29 7 57 28.5t40 44.5q-55 49 -96 111v0v0zM696 -77q12 -23 40 -44.5t57 -28.5q20 18 20 77q0 73 -21 107q-41 -62 -96 -111zM804 248q-2 68 -18 132q-172 -85 -362 -141q-50 -14 -97 -25q9 -90 61 -173q63 -101 177 -162q126 67 190 183q51 94 49 186q3 0 0 0
zM927 615q-30 8 -83 5q-61 -5 -144 -24q8 -7 17 -14q37 7 65 8q30 1 50 -4q34 -8 27 -32q-14 -46 -149 -116q-155 -81 -325 -121q-72 -18 -123 -19q-33 -2 -53 4q-33 10 -19 38q20 39 119 95l10 23q-94 -47 -153 -91q-71 -53 -71 -86q0 -37 83 -38q64 0 160 22
q233 51 442 164q87 47 135 89q43 38 45 64q1 23 -33 33v0v0zM448 226q-22 -10 -22 -35q0 -15 11 -26.5t27 -11.5q30 0 37 29zM695 226q23 -10 23 -35q0 -15 -11 -26.5t-27 -11.5q-30 0 -37 29zM571 -3q46 0 74 33q4 5 39 67q-44 -54 -113 -54t-113 54q35 -62 39 -67
q28 -33 74 -33z" />
    <glyph glyph-name="Omega" unicode="&#x2126;" horiz-adv-x="1066" 
d="M1066 610q-9 40 -105 41q-75 1 -188 -24q-42 -9 -88 -21q-39 25 -85 37q0 39 -11 90q-12 55 -24 67q-12 -12 -24 -67q-11 -51 -11 -90q-127 -33 -201 -166q-138 -64 -227 -127q-55 -40 -81 -73q-21 -27 -21 -47q0 -41 85 -47q70 -4 183 18q13 -73 58 -148
q-65 -59 -65 -123q0 -71 60 -130q63 15 129 109q53 -43 115 -71q62 28 115 71q66 -94 129 -109q60 59 60 130q0 64 -65 123q64 108 62 195q-2 72 -32 156q72 39 125 76q117 82 107 130zM774 519q-18 26 -39 47q51 0 51 -22q0 -10 -12 -25zM277 338q-22 5 -22 19q0 17 31 42
q5 5 12 10q-13 -34 -21 -71zM533 617q-29 -7 -70.5 -41t-58.5 -59q31 -13 61 -13q3 12 25 50t43 63zM565 752q-18 -33 -18 -114l18 -6v120zM418 352q127 32 245 92q27 14 50 28q-71 -13 -147 -13q-102 0 -182 21q-34 -61 -49 -143q37 4 83 15v0v0zM338 34q-21 -34 -21 -107
q0 -59 20 -77q29 7 57 28.5t40 44.5q-55 49 -96 111v0v0zM696 -77q12 -23 40 -44.5t57 -28.5q20 18 20 77q0 73 -21 107q-41 -62 -96 -111zM804 248q-2 68 -18 132q-172 -85 -362 -141q-50 -14 -97 -25q9 -90 61 -173q63 -101 177 -162q126 67 190 183q51 94 49 186q3 0 0 0
zM927 615q-30 8 -83 5q-61 -5 -144 -24q8 -7 17 -14q37 7 65 8q30 1 50 -4q34 -8 27 -32q-14 -46 -149 -116q-155 -81 -325 -121q-72 -18 -123 -19q-33 -2 -53 4q-33 10 -19 38q20 39 119 95l10 23q-94 -47 -153 -91q-71 -53 -71 -86q0 -37 83 -38q64 0 160 22
q233 51 442 164q87 47 135 89q43 38 45 64q1 23 -33 33v0v0zM448 226q-22 -10 -22 -35q0 -15 11 -26.5t27 -11.5q30 0 37 29zM695 226q23 -10 23 -35q0 -15 -11 -26.5t-27 -11.5q-30 0 -37 29zM571 -3q46 0 74 33q4 5 39 67q-44 -54 -113 -54t-113 54q35 -62 39 -67
q28 -33 74 -33z" />
    <glyph glyph-name="radical" unicode="&#x221a;" 
 />
    <glyph glyph-name="approxequal" unicode="&#x2248;" horiz-adv-x="616" 
d="M547 386l-34 -40q-57 -67 -129 -67q-49 0 -126 39q-56 30 -76 30q-25 0 -53 -33v0l-33 -40l-80 68l34 39q59 68 132 68q49 0 124 -40q55 -28 76 -28q26 0 52 31l34 40zM547 176l-34 -40q-57 -68 -129 -68q-49 0 -126 40q-56 29 -76 29q-25 0 -53 -32v0l-33 -40l-80 68
l34 39q59 67 132 67q49 0 124 -39q55 -29 76 -29q26 0 52 32l34 40z" />
    <glyph glyph-name="approxequal" unicode="&#x22f2;" horiz-adv-x="616" 
d="M547 386l-34 -40q-57 -67 -129 -67q-49 0 -126 39q-56 30 -76 30q-25 0 -53 -33v0l-33 -40l-80 68l34 39q59 68 132 68q49 0 124 -40q55 -28 76 -28q26 0 52 31l34 40zM547 176l-34 -40q-57 -68 -129 -68q-49 0 -126 40q-56 29 -76 29q-25 0 -53 -32v0l-33 -40l-80 68
l34 39q59 67 132 67q49 0 124 -39q55 -29 76 -29q26 0 52 32l34 40z" />
    <glyph glyph-name="Delta" unicode="&#x394;" horiz-adv-x="745" 
d="M0 0l357 603l354 -603h-711z" />
    <glyph glyph-name="Delta" unicode="&#x2206;" horiz-adv-x="745" 
d="M0 0l357 603l354 -603h-711z" />
    <glyph glyph-name="lozenge" unicode="&#x25ca;" 
 />
    <glyph glyph-name="fraction" unicode="&#x2044;" horiz-adv-x="443" 
d="M400 698l-393 -948l-96 40l393 948z" />
    <glyph glyph-name="fi" unicode="&#xf001;" horiz-adv-x="470" 
d="M428 0q-266 0 -266 192v234h-57v-426h-104v546q0 193 265 193v-104q-96 0 -133 -27q-28 -20 -28 -62v-16h57v1h104v-339q0 -41 28 -61q37 -27 134 -27v-104z" />
    <glyph glyph-name="fl" unicode="&#xf002;" horiz-adv-x="576" 
d="M531 0q-265 0 -265 192v234h-162v-426h-104v546q0 193 266 193h104v-547q0 -42 27 -61q37 -27 134 -27v-104zM266 530v105q-97 0 -134 -27q-28 -20 -28 -62v-16h162z" />
    <glyph glyph-name="apple" unicode="&#xf000;" horiz-adv-x="1066" 
d="M1066 610q-9 40 -105 41q-75 1 -188 -24q-42 -9 -88 -21q-39 25 -85 37q0 39 -11 90q-12 55 -24 67q-12 -12 -24 -67q-11 -51 -11 -90q-127 -33 -201 -166q-138 -64 -227 -127q-55 -40 -81 -73q-21 -27 -21 -47q0 -41 85 -47q70 -4 183 18q13 -73 58 -148
q-65 -59 -65 -123q0 -71 60 -130q63 15 129 109q53 -43 115 -71q62 28 115 71q66 -94 129 -109q60 59 60 130q0 64 -65 123q64 108 62 195q-2 72 -32 156q72 39 125 76q117 82 107 130zM774 519q-18 26 -39 47q51 0 51 -22q0 -10 -12 -25zM277 338q-22 5 -22 19q0 17 31 42
q5 5 12 10q-13 -34 -21 -71zM533 617q-29 -7 -70.5 -41t-58.5 -59q31 -13 61 -13q3 12 25 50t43 63zM565 752q-18 -33 -18 -114l18 -6v120zM418 352q127 32 245 92q27 14 50 28q-71 -13 -147 -13q-102 0 -182 21q-34 -61 -49 -143q37 4 83 15v0v0zM338 34q-21 -34 -21 -107
q0 -59 20 -77q29 7 57 28.5t40 44.5q-55 49 -96 111v0v0zM696 -77q12 -23 40 -44.5t57 -28.5q20 18 20 77q0 73 -21 107q-41 -62 -96 -111zM804 248q-2 68 -18 132q-172 -85 -362 -141q-50 -14 -97 -25q9 -90 61 -173q63 -101 177 -162q126 67 190 183q51 94 49 186q3 0 0 0
zM927 615q-30 8 -83 5q-61 -5 -144 -24q8 -7 17 -14q37 7 65 8q30 1 50 -4q34 -8 27 -32q-14 -46 -149 -116q-155 -81 -325 -121q-72 -18 -123 -19q-33 -2 -53 4q-33 10 -19 38q20 39 119 95l10 23q-94 -47 -153 -91q-71 -53 -71 -86q0 -37 83 -38q64 0 160 22
q233 51 442 164q87 47 135 89q43 38 45 64q1 23 -33 33v0v0zM448 226q-22 -10 -22 -35q0 -15 11 -26.5t27 -11.5q30 0 37 29zM695 226q23 -10 23 -35q0 -15 -11 -26.5t-27 -11.5q-30 0 -37 29zM571 -3q46 0 74 33q4 5 39 67q-44 -54 -113 -54t-113 54q35 -62 39 -67
q28 -33 74 -33z" />
    <glyph glyph-name="dotlessi" unicode="&#x131;" 
 />
    <glyph glyph-name="breve" unicode="&#x2d8;" horiz-adv-x="485" 
d="M416 631l-213 -107l-213 107l47 93l166 -84l166 84z" />
    <glyph glyph-name="dotaccent" unicode="&#x2d9;" 
 />
    <glyph glyph-name="ring" unicode="&#x2da;" 
 />
    <glyph glyph-name="hungarumlaut" unicode="&#x2dd;" 
 />
    <glyph glyph-name="ogonek" unicode="&#x2db;" 
 />
    <glyph glyph-name="caron" unicode="&#x2c7;" 
 />
    </font>
</defs>
</svg>
